<svg width="23" height="23" viewBox="0 0 23 23" fill="none" xmlns="http://www.w3.org/2000/svg">
  <path fill-rule="evenodd" clip-rule="evenodd" d="M12.25 1V0H10.25V4.01C9.00991 4.17976 7.83465 4.66681 6.838 5.424L4.71 3.295L4.002 2.588L2.588 4.002L3.295 4.71L5.424 6.838C4.66681 7.83465 4.17976 9.00991 4.01 10.25H0V12.25H4.01C4.18107 13.4897 4.66799 14.6647 5.424 15.662L3.295 17.791L2.588 18.498L4.002 19.912L4.71 19.205L6.838 17.076C7.83465 17.8332 9.00991 18.3202 10.25 18.49V22.5H12.25V18.49C13.4897 18.3189 14.6647 17.832 15.662 17.076L17.791 19.206L18.498 19.912L19.912 18.498L19.205 17.791L17.076 15.662C17.832 14.6647 18.3189 13.4897 18.49 12.25H22.5V10.25H18.49C18.3202 9.00991 17.8332 7.83465 17.076 6.838L19.206 4.71L19.912 4.002L18.498 2.588L17.791 3.295L15.662 5.425C14.6648 4.66863 13.4898 4.18137 12.25 4.01V1ZM15.017 7.51L14.99 7.484C13.9962 6.49572 12.6515 5.94129 11.25 5.942C10.422 5.942 9.638 6.132 8.94 6.47C8.81115 7.43145 8.90577 8.40966 9.21651 9.32859C9.52726 10.2475 10.0457 11.0824 10.7317 11.7683C11.4176 12.4543 12.2525 12.9727 13.1714 13.2835C14.0903 13.5942 15.0686 13.6889 16.03 13.56C16.3722 12.8519 16.5526 12.0765 16.558 11.29V11.21C16.5485 9.8225 15.9952 8.49407 15.017 7.51Z" fill="#ffffff" />
</svg>