<svg width="257" height="47" viewBox="0 0 257 47" fill="none" xmlns="http://www.w3.org/2000/svg">
<path d="M13.6133 26.8633H6.36719V22.293H13.6133C14.7331 22.293 15.6445 22.1107 16.3477 21.7461C17.0508 21.3685 17.5651 20.8477 17.8906 20.1836C18.2161 19.5195 18.3789 18.7708 18.3789 17.9375C18.3789 17.0911 18.2161 16.3034 17.8906 15.5742C17.5651 14.8451 17.0508 14.2591 16.3477 13.8164C15.6445 13.3737 14.7331 13.1523 13.6133 13.1523H8.39844V37H2.53906V8.5625H13.6133C15.8398 8.5625 17.7474 8.96615 19.3359 9.77344C20.9375 10.5677 22.1615 11.668 23.0078 13.0742C23.8542 14.4805 24.2773 16.0885 24.2773 17.8984C24.2773 19.7344 23.8542 21.3229 23.0078 22.6641C22.1615 24.0052 20.9375 25.0404 19.3359 25.7695C17.7474 26.4987 15.8398 26.8633 13.6133 26.8633ZM33.5938 20.4766V37H27.9688V15.8672H33.2617L33.5938 20.4766ZM39.9609 15.7305L39.8633 20.9453C39.5898 20.9062 39.2578 20.8737 38.8672 20.8477C38.4896 20.8086 38.1445 20.7891 37.832 20.7891C37.0378 20.7891 36.3477 20.8932 35.7617 21.1016C35.1888 21.2969 34.707 21.5898 34.3164 21.9805C33.9388 22.3711 33.6523 22.8464 33.457 23.4062C33.2747 23.9661 33.1706 24.6042 33.1445 25.3203L32.0117 24.9688C32.0117 23.6016 32.1484 22.3451 32.4219 21.1992C32.6953 20.0404 33.0924 19.0312 33.6133 18.1719C34.1471 17.3125 34.7982 16.6484 35.5664 16.1797C36.3346 15.7109 37.2135 15.4766 38.2031 15.4766C38.5156 15.4766 38.8346 15.5026 39.1602 15.5547C39.4857 15.5938 39.7526 15.6523 39.9609 15.7305ZM48.5547 15.8672V37H42.9102V15.8672H48.5547ZM42.5586 10.3594C42.5586 9.53906 42.8451 8.86198 43.418 8.32812C43.9909 7.79427 44.7591 7.52734 45.7227 7.52734C46.6732 7.52734 47.4349 7.79427 48.0078 8.32812C48.5938 8.86198 48.8867 9.53906 48.8867 10.3594C48.8867 11.1797 48.5938 11.8568 48.0078 12.3906C47.4349 12.9245 46.6732 13.1914 45.7227 13.1914C44.7591 13.1914 43.9909 12.9245 43.418 12.3906C42.8451 11.8568 42.5586 11.1797 42.5586 10.3594ZM58.7109 20.3789V37H53.0859V15.8672H58.3594L58.7109 20.3789ZM57.8906 25.6914H56.3672C56.3672 24.1289 56.569 22.7227 56.9727 21.4727C57.3763 20.2096 57.9427 19.1354 58.6719 18.25C59.401 17.3516 60.2669 16.668 61.2695 16.1992C62.2852 15.7174 63.418 15.4766 64.668 15.4766C65.6576 15.4766 66.5625 15.6198 67.3828 15.9062C68.2031 16.1927 68.9062 16.6484 69.4922 17.2734C70.0911 17.8984 70.5469 18.7253 70.8594 19.7539C71.1849 20.7826 71.3477 22.0391 71.3477 23.5234V37H65.6836V23.5039C65.6836 22.5664 65.5534 21.8372 65.293 21.3164C65.0326 20.7956 64.6484 20.431 64.1406 20.2227C63.6458 20.0013 63.0339 19.8906 62.3047 19.8906C61.5495 19.8906 60.8919 20.0404 60.332 20.3398C59.7852 20.6393 59.3294 21.056 58.9648 21.5898C58.6133 22.1107 58.3464 22.7227 58.1641 23.4258C57.9818 24.1289 57.8906 24.8841 57.8906 25.6914ZM85.9766 15.8672V19.8516H73.6719V15.8672H85.9766ZM76.7188 10.6523H82.3438V30.6328C82.3438 31.2448 82.4219 31.7135 82.5781 32.0391C82.7474 32.3646 82.9948 32.5924 83.3203 32.7227C83.6458 32.8398 84.056 32.8984 84.5508 32.8984C84.9023 32.8984 85.2148 32.8854 85.4883 32.8594C85.7747 32.8203 86.0156 32.7812 86.2109 32.7422L86.2305 36.8828C85.7487 37.0391 85.2279 37.1628 84.668 37.2539C84.1081 37.3451 83.4896 37.3906 82.8125 37.3906C81.5755 37.3906 80.4948 37.1888 79.5703 36.7852C78.6589 36.3685 77.9557 35.7044 77.4609 34.793C76.9661 33.8815 76.7188 32.6836 76.7188 31.1992V10.6523ZM104.336 29.5586C104.336 29.0508 104.258 28.5951 104.102 28.1914C103.958 27.7747 103.685 27.3971 103.281 27.0586C102.878 26.707 102.311 26.362 101.582 26.0234C100.853 25.6849 99.9089 25.3333 98.75 24.9688C97.4609 24.5521 96.237 24.0833 95.0781 23.5625C93.9323 23.0417 92.9167 22.4362 92.0312 21.7461C91.1589 21.043 90.4688 20.2292 89.9609 19.3047C89.4661 18.3802 89.2188 17.306 89.2188 16.082C89.2188 14.8971 89.4792 13.8229 90 12.8594C90.5208 11.8828 91.25 11.0495 92.1875 10.3594C93.125 9.65625 94.2318 9.11589 95.5078 8.73828C96.7969 8.36068 98.2096 8.17188 99.7461 8.17188C101.842 8.17188 103.672 8.54948 105.234 9.30469C106.797 10.0599 108.008 11.0951 108.867 12.4102C109.74 13.7253 110.176 15.2292 110.176 16.9219H104.355C104.355 16.0885 104.18 15.3594 103.828 14.7344C103.49 14.0964 102.969 13.5951 102.266 13.2305C101.576 12.8659 100.703 12.6836 99.6484 12.6836C98.6328 12.6836 97.7865 12.8398 97.1094 13.1523C96.4323 13.4518 95.9245 13.862 95.5859 14.3828C95.2474 14.8906 95.0781 15.4635 95.0781 16.1016C95.0781 16.5833 95.1953 17.0195 95.4297 17.4102C95.6771 17.8008 96.0417 18.1654 96.5234 18.5039C97.0052 18.8424 97.5977 19.1615 98.3008 19.4609C99.0039 19.7604 99.8177 20.0534 100.742 20.3398C102.292 20.8086 103.652 21.3359 104.824 21.9219C106.009 22.5078 106.999 23.1654 107.793 23.8945C108.587 24.6237 109.186 25.4505 109.59 26.375C109.993 27.2995 110.195 28.3477 110.195 29.5195C110.195 30.7565 109.954 31.8633 109.473 32.8398C108.991 33.8164 108.294 34.6432 107.383 35.3203C106.471 35.9974 105.384 36.5117 104.121 36.8633C102.858 37.2148 101.445 37.3906 99.8828 37.3906C98.4766 37.3906 97.0898 37.2083 95.7227 36.8438C94.3555 36.4661 93.112 35.8997 91.9922 35.1445C90.8854 34.3893 90 33.4258 89.3359 32.2539C88.6719 31.082 88.3398 29.6953 88.3398 28.0938H94.2188C94.2188 28.9792 94.3555 29.7279 94.6289 30.3398C94.9023 30.9518 95.2865 31.4466 95.7812 31.8242C96.2891 32.2018 96.888 32.4753 97.5781 32.6445C98.2812 32.8138 99.0495 32.8984 99.8828 32.8984C100.898 32.8984 101.732 32.7552 102.383 32.4688C103.047 32.1823 103.535 31.7852 103.848 31.2773C104.173 30.7695 104.336 30.1966 104.336 29.5586ZM119.316 7V37H113.691V7H119.316ZM118.516 25.6914H116.973C116.986 24.2201 117.181 22.8659 117.559 21.6289C117.936 20.3789 118.477 19.2982 119.18 18.3867C119.883 17.4622 120.723 16.7461 121.699 16.2383C122.689 15.7305 123.783 15.4766 124.98 15.4766C126.022 15.4766 126.966 15.6263 127.812 15.9258C128.672 16.2122 129.408 16.681 130.02 17.332C130.645 17.9701 131.126 18.8099 131.465 19.8516C131.803 20.8932 131.973 22.1562 131.973 23.6406V37H126.309V23.6016C126.309 22.6641 126.172 21.9284 125.898 21.3945C125.638 20.8477 125.254 20.4635 124.746 20.2422C124.251 20.0078 123.639 19.8906 122.91 19.8906C122.103 19.8906 121.413 20.0404 120.84 20.3398C120.28 20.6393 119.831 21.056 119.492 21.5898C119.154 22.1107 118.906 22.7227 118.75 23.4258C118.594 24.1289 118.516 24.8841 118.516 25.6914ZM135.352 26.6484V26.2383C135.352 24.6888 135.573 23.263 136.016 21.9609C136.458 20.6458 137.103 19.5065 137.949 18.543C138.796 17.5794 139.837 16.8307 141.074 16.2969C142.311 15.75 143.73 15.4766 145.332 15.4766C146.934 15.4766 148.359 15.75 149.609 16.2969C150.859 16.8307 151.908 17.5794 152.754 18.543C153.613 19.5065 154.264 20.6458 154.707 21.9609C155.15 23.263 155.371 24.6888 155.371 26.2383V26.6484C155.371 28.1849 155.15 29.6107 154.707 30.9258C154.264 32.2279 153.613 33.3672 152.754 34.3438C151.908 35.3073 150.866 36.056 149.629 36.5898C148.392 37.1237 146.973 37.3906 145.371 37.3906C143.77 37.3906 142.344 37.1237 141.094 36.5898C139.857 36.056 138.809 35.3073 137.949 34.3438C137.103 33.3672 136.458 32.2279 136.016 30.9258C135.573 29.6107 135.352 28.1849 135.352 26.6484ZM140.977 26.2383V26.6484C140.977 27.5339 141.055 28.3607 141.211 29.1289C141.367 29.8971 141.615 30.5742 141.953 31.1602C142.305 31.7331 142.76 32.1823 143.32 32.5078C143.88 32.8333 144.564 32.9961 145.371 32.9961C146.152 32.9961 146.823 32.8333 147.383 32.5078C147.943 32.1823 148.392 31.7331 148.73 31.1602C149.069 30.5742 149.316 29.8971 149.473 29.1289C149.642 28.3607 149.727 27.5339 149.727 26.6484V26.2383C149.727 25.3789 149.642 24.5716 149.473 23.8164C149.316 23.0482 149.062 22.3711 148.711 21.7852C148.372 21.1862 147.923 20.7174 147.363 20.3789C146.803 20.0404 146.126 19.8711 145.332 19.8711C144.538 19.8711 143.861 20.0404 143.301 20.3789C142.754 20.7174 142.305 21.1862 141.953 21.7852C141.615 22.3711 141.367 23.0482 141.211 23.8164C141.055 24.5716 140.977 25.3789 140.977 26.2383ZM164.453 19.9297V45.125H158.828V15.8672H164.043L164.453 19.9297ZM177.832 26.1992V26.6094C177.832 28.1458 177.65 29.5716 177.285 30.8867C176.934 32.2018 176.413 33.3477 175.723 34.3242C175.033 35.2878 174.173 36.043 173.145 36.5898C172.129 37.1237 170.957 37.3906 169.629 37.3906C168.34 37.3906 167.22 37.1302 166.27 36.6094C165.319 36.0885 164.518 35.3594 163.867 34.4219C163.229 33.4714 162.715 32.3711 162.324 31.1211C161.934 29.8711 161.634 28.5299 161.426 27.0977V26.0234C161.634 24.487 161.934 23.0807 162.324 21.8047C162.715 20.5156 163.229 19.4023 163.867 18.4648C164.518 17.5143 165.312 16.7786 166.25 16.2578C167.201 15.737 168.314 15.4766 169.59 15.4766C170.931 15.4766 172.109 15.7305 173.125 16.2383C174.154 16.7461 175.013 17.4753 175.703 18.4258C176.406 19.3763 176.934 20.5091 177.285 21.8242C177.65 23.1393 177.832 24.5977 177.832 26.1992ZM172.188 26.6094V26.1992C172.188 25.3008 172.109 24.474 171.953 23.7188C171.81 22.9505 171.576 22.2799 171.25 21.707C170.938 21.1341 170.521 20.6914 170 20.3789C169.492 20.0534 168.874 19.8906 168.145 19.8906C167.376 19.8906 166.719 20.0143 166.172 20.2617C165.638 20.5091 165.202 20.8672 164.863 21.3359C164.525 21.8047 164.271 22.3646 164.102 23.0156C163.932 23.6667 163.828 24.4023 163.789 25.2227V27.9375C163.854 28.901 164.036 29.7669 164.336 30.5352C164.635 31.2904 165.098 31.8893 165.723 32.332C166.348 32.7747 167.168 32.9961 168.184 32.9961C168.926 32.9961 169.551 32.8333 170.059 32.5078C170.566 32.1693 170.977 31.707 171.289 31.1211C171.615 30.5352 171.842 29.8581 171.973 29.0898C172.116 28.3216 172.188 27.4948 172.188 26.6094ZM214.785 8.5625V37H208.926L197.5 17.9375V37H191.641V8.5625H197.5L208.945 27.6445V8.5625H214.785ZM234.688 29.5586C234.688 29.0508 234.609 28.5951 234.453 28.1914C234.31 27.7747 234.036 27.3971 233.633 27.0586C233.229 26.707 232.663 26.362 231.934 26.0234C231.204 25.6849 230.26 25.3333 229.102 24.9688C227.812 24.5521 226.589 24.0833 225.43 23.5625C224.284 23.0417 223.268 22.4362 222.383 21.7461C221.51 21.043 220.82 20.2292 220.312 19.3047C219.818 18.3802 219.57 17.306 219.57 16.082C219.57 14.8971 219.831 13.8229 220.352 12.8594C220.872 11.8828 221.602 11.0495 222.539 10.3594C223.477 9.65625 224.583 9.11589 225.859 8.73828C227.148 8.36068 228.561 8.17188 230.098 8.17188C232.194 8.17188 234.023 8.54948 235.586 9.30469C237.148 10.0599 238.359 11.0951 239.219 12.4102C240.091 13.7253 240.527 15.2292 240.527 16.9219H234.707C234.707 16.0885 234.531 15.3594 234.18 14.7344C233.841 14.0964 233.32 13.5951 232.617 13.2305C231.927 12.8659 231.055 12.6836 230 12.6836C228.984 12.6836 228.138 12.8398 227.461 13.1523C226.784 13.4518 226.276 13.862 225.938 14.3828C225.599 14.8906 225.43 15.4635 225.43 16.1016C225.43 16.5833 225.547 17.0195 225.781 17.4102C226.029 17.8008 226.393 18.1654 226.875 18.5039C227.357 18.8424 227.949 19.1615 228.652 19.4609C229.355 19.7604 230.169 20.0534 231.094 20.3398C232.643 20.8086 234.004 21.3359 235.176 21.9219C236.361 22.5078 237.35 23.1654 238.145 23.8945C238.939 24.6237 239.538 25.4505 239.941 26.375C240.345 27.2995 240.547 28.3477 240.547 29.5195C240.547 30.7565 240.306 31.8633 239.824 32.8398C239.342 33.8164 238.646 34.6432 237.734 35.3203C236.823 35.9974 235.736 36.5117 234.473 36.8633C233.21 37.2148 231.797 37.3906 230.234 37.3906C228.828 37.3906 227.441 37.2083 226.074 36.8438C224.707 36.4661 223.464 35.8997 222.344 35.1445C221.237 34.3893 220.352 33.4258 219.688 32.2539C219.023 31.082 218.691 29.6953 218.691 28.0938H224.57C224.57 28.9792 224.707 29.7279 224.98 30.3398C225.254 30.9518 225.638 31.4466 226.133 31.8242C226.641 32.2018 227.24 32.4753 227.93 32.6445C228.633 32.8138 229.401 32.8984 230.234 32.8984C231.25 32.8984 232.083 32.7552 232.734 32.4688C233.398 32.1823 233.887 31.7852 234.199 31.2773C234.525 30.7695 234.688 30.1966 234.688 29.5586Z" fill="black"/>
<circle cx="252" cy="32" r="5" fill="#3F6EE9"/>
</svg>
